<mxfile host="app.diagrams.net" modified="2022-11-21T09:21:23.652Z" agent="5.0 (X11; Linux x86_64) AppleWebKit/537.36 (KHTML, like Gecko) Chrome/107.0.0.0 Safari/537.36 OPR/93.0.0.0" etag="EfuQq4qQChXWo2uua7D4" version="20.3.7" type="github">
  <diagram id="-GTF0T2p4a_TMD8wn8V1" name="Page-1">
    <mxGraphModel dx="894" dy="1636" grid="1" gridSize="10" guides="1" tooltips="1" connect="1" arrows="1" fold="1" page="1" pageScale="1" pageWidth="850" pageHeight="1100" math="0" shadow="0">
      <root>
        <mxCell id="0" />
        <mxCell id="1" parent="0" />
        <mxCell id="NVFizDcmDonX99uOvucX-11" value="Client Application" style="shape=umlFrame;whiteSpace=wrap;html=1;width=140;height=20;" parent="1" vertex="1">
          <mxGeometry x="30" y="230" width="790" height="440" as="geometry" />
        </mxCell>
        <mxCell id="NVFizDcmDonX99uOvucX-8" value="comunque ho un&#39;idea abbastanza realistica da proporti, un&#39;app per pianificazione di eventi(anche viaggi)/incontri per gruppi, con le seguenti caratteristiche:&#xa;- la data/ora/[luogo] dell&#39;evento viene scelto attraverso un poll dei partecipanti&#xa;- (?) data/ora sono limitati dalla disponibilitá reale del luogo (ristorante, club sportivo, sala riunioni), o anche dal prezzo se variabile, e di questo si potrebbe tener conto integrando un&#39;api di qualche servizio esistente, e.g playtomic.com&#xa;- una volta raggiunto il limite minimo di partecipanti (o la maggioranza ha decisio, o altre opzioni) l&#39;evento viene confermato e fissato, si potrebbe creare l&#39;evento in formato .ics per salvare direttamente al calendario o cercare di integrare tipo gcalendar&#xa;- nel caso fosse giá troppo complicato potrebbe essere magari limitata solo alla parte decisionale e ampliata alla pianificazione di viaggi di gruppo&#xa;- https://doodle.com/it/ come esempio di funzionalitá che mi piacerebbe implementare&#xa;&#xa;&#xa;i punti sopra sono solo idee di funzionalitá, alla base c é l&#39;esempio che ti ho mostrato, da lí potremmo vedere cosa é fattibile e cosa no" style="text;whiteSpace=wrap;html=1;" parent="1" vertex="1">
          <mxGeometry x="130" y="-100" width="560" height="250" as="geometry" />
        </mxCell>
        <mxCell id="NVFizDcmDonX99uOvucX-17" value="Login" style="html=1;dropTarget=0;" parent="1" vertex="1">
          <mxGeometry x="80" y="280" width="120" height="50" as="geometry" />
        </mxCell>
        <mxCell id="NVFizDcmDonX99uOvucX-18" value="" style="shape=module;jettyWidth=8;jettyHeight=4;" parent="NVFizDcmDonX99uOvucX-17" vertex="1">
          <mxGeometry x="1" width="20" height="20" relative="1" as="geometry">
            <mxPoint x="-27" y="7" as="offset" />
          </mxGeometry>
        </mxCell>
        <mxCell id="NVFizDcmDonX99uOvucX-19" value="Signup&lt;span style=&quot;color: rgba(0, 0, 0, 0); font-family: monospace; font-size: 0px; text-align: start;&quot;&gt;%3CmxGraphModel%3E%3Croot%3E%3CmxCell%20id%3D%220%22%2F%3E%3CmxCell%20id%3D%221%22%20parent%3D%220%22%2F%3E%3CmxCell%20id%3D%222%22%20value%3D%22Login%22%20style%3D%22html%3D1%3BdropTarget%3D0%3B%22%20vertex%3D%221%22%20parent%3D%221%22%3E%3CmxGeometry%20x%3D%2280%22%20y%3D%22280%22%20width%3D%22120%22%20height%3D%2250%22%20as%3D%22geometry%22%2F%3E%3C%2FmxCell%3E%3CmxCell%20id%3D%223%22%20value%3D%22%22%20style%3D%22shape%3Dmodule%3BjettyWidth%3D8%3BjettyHeight%3D4%3B%22%20vertex%3D%221%22%20parent%3D%222%22%3E%3CmxGeometry%20x%3D%221%22%20width%3D%2220%22%20height%3D%2220%22%20relative%3D%221%22%20as%3D%22geometry%22%3E%3CmxPoint%20x%3D%22-27%22%20y%3D%227%22%20as%3D%22offset%22%2F%3E%3C%2FmxGeometry%3E%3C%2FmxCell%3E%3C%2Froot%3E%3C%2FmxGraphModel%3E&lt;/span&gt;&lt;span style=&quot;color: rgba(0, 0, 0, 0); font-family: monospace; font-size: 0px; text-align: start;&quot;&gt;%3CmxGraphModel%3E%3Croot%3E%3CmxCell%20id%3D%220%22%2F%3E%3CmxCell%20id%3D%221%22%20parent%3D%220%22%2F%3E%3CmxCell%20id%3D%222%22%20value%3D%22Login%22%20style%3D%22html%3D1%3BdropTarget%3D0%3B%22%20vertex%3D%221%22%20parent%3D%221%22%3E%3CmxGeometry%20x%3D%2280%22%20y%3D%22280%22%20width%3D%22120%22%20height%3D%2250%22%20as%3D%22geometry%22%2F%3E%3C%2FmxCell%3E%3CmxCell%20id%3D%223%22%20value%3D%22%22%20style%3D%22shape%3Dmodule%3BjettyWidth%3D8%3BjettyHeight%3D4%3B%22%20vertex%3D%221%22%20parent%3D%222%22%3E%3CmxGeometry%20x%3D%221%22%20width%3D%2220%22%20height%3D%2220%22%20relative%3D%221%22%20as%3D%22geometry%22%3E%3CmxPoint%20x%3D%22-27%22%20y%3D%227%22%20as%3D%22offset%22%2F%3E%3C%2FmxGeometry%3E%3C%2FmxCell%3E%3C%2Froot%3E%3C%2FmxGraphModel%3E&lt;/span&gt;" style="html=1;dropTarget=0;" parent="1" vertex="1">
          <mxGeometry x="260" y="280" width="120" height="50" as="geometry" />
        </mxCell>
        <mxCell id="NVFizDcmDonX99uOvucX-20" value="" style="shape=module;jettyWidth=8;jettyHeight=4;" parent="NVFizDcmDonX99uOvucX-19" vertex="1">
          <mxGeometry x="1" width="20" height="20" relative="1" as="geometry">
            <mxPoint x="-27" y="7" as="offset" />
          </mxGeometry>
        </mxCell>
        <mxCell id="NVFizDcmDonX99uOvucX-21" value="Partner Detail" style="html=1;dropTarget=0;" parent="1" vertex="1">
          <mxGeometry x="440" y="280" width="140" height="50" as="geometry" />
        </mxCell>
        <mxCell id="NVFizDcmDonX99uOvucX-22" value="" style="shape=module;jettyWidth=8;jettyHeight=4;" parent="NVFizDcmDonX99uOvucX-21" vertex="1">
          <mxGeometry x="1" width="20" height="20" relative="1" as="geometry">
            <mxPoint x="-27" y="7" as="offset" />
          </mxGeometry>
        </mxCell>
        <mxCell id="NVFizDcmDonX99uOvucX-24" value="Profile" style="html=1;dropTarget=0;" parent="1" vertex="1">
          <mxGeometry x="80" y="370" width="120" height="50" as="geometry" />
        </mxCell>
        <mxCell id="NVFizDcmDonX99uOvucX-25" value="" style="shape=module;jettyWidth=8;jettyHeight=4;" parent="NVFizDcmDonX99uOvucX-24" vertex="1">
          <mxGeometry x="1" width="20" height="20" relative="1" as="geometry">
            <mxPoint x="-27" y="7" as="offset" />
          </mxGeometry>
        </mxCell>
        <mxCell id="NVFizDcmDonX99uOvucX-26" value="EventDetail" style="html=1;dropTarget=0;" parent="1" vertex="1">
          <mxGeometry x="440" y="570" width="120" height="50" as="geometry" />
        </mxCell>
        <mxCell id="NVFizDcmDonX99uOvucX-27" value="" style="shape=module;jettyWidth=8;jettyHeight=4;" parent="NVFizDcmDonX99uOvucX-26" vertex="1">
          <mxGeometry x="1" width="20" height="20" relative="1" as="geometry">
            <mxPoint x="-27" y="7" as="offset" />
          </mxGeometry>
        </mxCell>
        <mxCell id="NVFizDcmDonX99uOvucX-28" value="EventsList" style="html=1;dropTarget=0;" parent="1" vertex="1">
          <mxGeometry x="260" y="570" width="120" height="50" as="geometry" />
        </mxCell>
        <mxCell id="NVFizDcmDonX99uOvucX-29" value="" style="shape=module;jettyWidth=8;jettyHeight=4;" parent="NVFizDcmDonX99uOvucX-28" vertex="1">
          <mxGeometry x="1" width="20" height="20" relative="1" as="geometry">
            <mxPoint x="-27" y="7" as="offset" />
          </mxGeometry>
        </mxCell>
        <mxCell id="NVFizDcmDonX99uOvucX-31" value="GroupsList" style="html=1;dropTarget=0;" parent="1" vertex="1">
          <mxGeometry x="260" y="470" width="120" height="50" as="geometry" />
        </mxCell>
        <mxCell id="NVFizDcmDonX99uOvucX-32" value="" style="shape=module;jettyWidth=8;jettyHeight=4;" parent="NVFizDcmDonX99uOvucX-31" vertex="1">
          <mxGeometry x="1" width="20" height="20" relative="1" as="geometry">
            <mxPoint x="-27" y="7" as="offset" />
          </mxGeometry>
        </mxCell>
        <mxCell id="lInJ1SMx12R_getJKhRr-1" value="GroupDetail" style="html=1;dropTarget=0;" vertex="1" parent="1">
          <mxGeometry x="440" y="470" width="120" height="50" as="geometry" />
        </mxCell>
        <mxCell id="lInJ1SMx12R_getJKhRr-2" value="" style="shape=module;jettyWidth=8;jettyHeight=4;" vertex="1" parent="lInJ1SMx12R_getJKhRr-1">
          <mxGeometry x="1" width="20" height="20" relative="1" as="geometry">
            <mxPoint x="-27" y="7" as="offset" />
          </mxGeometry>
        </mxCell>
        <mxCell id="lInJ1SMx12R_getJKhRr-3" value="EventCreate" style="html=1;dropTarget=0;" vertex="1" parent="1">
          <mxGeometry x="80" y="570" width="130" height="50" as="geometry" />
        </mxCell>
        <mxCell id="lInJ1SMx12R_getJKhRr-4" value="" style="shape=module;jettyWidth=8;jettyHeight=4;" vertex="1" parent="lInJ1SMx12R_getJKhRr-3">
          <mxGeometry x="1" width="20" height="20" relative="1" as="geometry">
            <mxPoint x="-27" y="7" as="offset" />
          </mxGeometry>
        </mxCell>
        <mxCell id="lInJ1SMx12R_getJKhRr-5" value="DiscoverPlace" style="html=1;dropTarget=0;" vertex="1" parent="1">
          <mxGeometry x="260" y="370" width="140" height="50" as="geometry" />
        </mxCell>
        <mxCell id="lInJ1SMx12R_getJKhRr-6" value="" style="shape=module;jettyWidth=8;jettyHeight=4;" vertex="1" parent="lInJ1SMx12R_getJKhRr-5">
          <mxGeometry x="1" width="20" height="20" relative="1" as="geometry">
            <mxPoint x="-27" y="7" as="offset" />
          </mxGeometry>
        </mxCell>
        <mxCell id="lInJ1SMx12R_getJKhRr-7" value="GroupCreate" style="html=1;dropTarget=0;" vertex="1" parent="1">
          <mxGeometry x="80" y="470" width="130" height="50" as="geometry" />
        </mxCell>
        <mxCell id="lInJ1SMx12R_getJKhRr-8" value="" style="shape=module;jettyWidth=8;jettyHeight=4;" vertex="1" parent="lInJ1SMx12R_getJKhRr-7">
          <mxGeometry x="1" width="20" height="20" relative="1" as="geometry">
            <mxPoint x="-27" y="7" as="offset" />
          </mxGeometry>
        </mxCell>
        <mxCell id="lInJ1SMx12R_getJKhRr-9" value="PlacesList&lt;span style=&quot;color: rgba(0, 0, 0, 0); font-family: monospace; font-size: 0px; text-align: start;&quot;&gt;%3CmxGraphModel%3E%3Croot%3E%3CmxCell%20id%3D%220%22%2F%3E%3CmxCell%20id%3D%221%22%20parent%3D%220%22%2F%3E%3CmxCell%20id%3D%222%22%20value%3D%22DiscoverPlace%22%20style%3D%22html%3D1%3BdropTarget%3D0%3B%22%20vertex%3D%221%22%20parent%3D%221%22%3E%3CmxGeometry%20x%3D%22260%22%20y%3D%22370%22%20width%3D%22140%22%20height%3D%2250%22%20as%3D%22geometry%22%2F%3E%3C%2FmxCell%3E%3CmxCell%20id%3D%223%22%20value%3D%22%22%20style%3D%22shape%3Dmodule%3BjettyWidth%3D8%3BjettyHeight%3D4%3B%22%20vertex%3D%221%22%20parent%3D%222%22%3E%3CmxGeometry%20x%3D%221%22%20width%3D%2220%22%20height%3D%2220%22%20relative%3D%221%22%20as%3D%22geometry%22%3E%3CmxPoint%20x%3D%22-27%22%20y%3D%227%22%20as%3D%22offset%22%2F%3E%3C%2FmxGeometry%3E%3C%2FmxCell%3E%3C%2Froot%3E%3C%2FmxGraphModel%3E&lt;/span&gt;" style="html=1;dropTarget=0;" vertex="1" parent="1">
          <mxGeometry x="440" y="370" width="140" height="50" as="geometry" />
        </mxCell>
        <mxCell id="lInJ1SMx12R_getJKhRr-10" value="" style="shape=module;jettyWidth=8;jettyHeight=4;" vertex="1" parent="lInJ1SMx12R_getJKhRr-9">
          <mxGeometry x="1" width="20" height="20" relative="1" as="geometry">
            <mxPoint x="-27" y="7" as="offset" />
          </mxGeometry>
        </mxCell>
        <mxCell id="lInJ1SMx12R_getJKhRr-11" value="PlaceDetail" style="html=1;dropTarget=0;" vertex="1" parent="1">
          <mxGeometry x="620" y="370" width="140" height="50" as="geometry" />
        </mxCell>
        <mxCell id="lInJ1SMx12R_getJKhRr-12" value="" style="shape=module;jettyWidth=8;jettyHeight=4;" vertex="1" parent="lInJ1SMx12R_getJKhRr-11">
          <mxGeometry x="1" width="20" height="20" relative="1" as="geometry">
            <mxPoint x="-27" y="7" as="offset" />
          </mxGeometry>
        </mxCell>
      </root>
    </mxGraphModel>
  </diagram>
</mxfile>
